# xmcd CD database file
#
# Track frame offsets:
#	187
#	23225
#	31440
#
# Disc length: 726 seconds
#
# Revision: 0
# Processed by: cddbd v1.5PL3 Copyright (c) Steve Scherf et al.
# Submitted via: CDex 1.51
#
DISCID=1c02d403
DTITLE=二葉百合子 - ウハウハ イヒイヒ ドッチラケ
DYEAR=1993
DGENRE=Anime
TTITLE0=ウハウハ イヒイヒ ドッチラケ
TTITLE1=ウゴウゴ・ルーガ“みずいろぞうさん”BGMより〜メドレー
TTITLE2=ウハウハ イヒイヒ ドッチラケ (カラオケ)
EXTD=YEAR: 1993
EXTT0=
EXTT1=
EXTT2=
PLAYORDER=
